<?xml version="1.0" encoding="UTF-8" standalone="no"?>
<!-- Created with Inkscape (http://www.inkscape.org/) -->

<svg
   width="32"
   height="32"
   viewBox="0 0 32 32"
   version="1.1"
   id="svg1"
   xml:space="preserve"
   sodipodi:docname="julianooo.svg"
   inkscape:version="1.4.2 (f4327f4, 2025-05-13)"
   xmlns:inkscape="http://www.inkscape.org/namespaces/inkscape"
   xmlns:sodipodi="http://sodipodi.sourceforge.net/DTD/sodipodi-0.dtd"
   xmlns="http://www.w3.org/2000/svg"
   xmlns:svg="http://www.w3.org/2000/svg"><sodipodi:namedview
     id="namedview1"
     pagecolor="#ffffff"
     bordercolor="#000000"
     borderopacity="0.25"
     inkscape:showpageshadow="2"
     inkscape:pageopacity="0.0"
     inkscape:pagecheckerboard="0"
     inkscape:deskcolor="#d1d1d1"
     inkscape:document-units="px"
     inkscape:zoom="16"
     inkscape:cx="-0.09375"
     inkscape:cy="14.34375"
     inkscape:window-width="1920"
     inkscape:window-height="1001"
     inkscape:window-x="-9"
     inkscape:window-y="-9"
     inkscape:window-maximized="1"
     inkscape:current-layer="layer6" /><defs
     id="defs1" /><g
     inkscape:groupmode="layer"
     id="layer6"
     inkscape:label="kotek"><path
       style="display:inline;opacity:1;fill:#f09939;fill-opacity:1;stroke:none;stroke-width:1.3;stroke-linecap:round;stroke-linejoin:round;stroke-dasharray:none;stroke-opacity:1;paint-order:normal"
       d="m 5.0625,13.03125 c 0,0 -1.34375,-18.21875 7.625,-4.9375 0,0 4.25,-0.78125 6.5,0.15625 0,0 8.625,-14 7.78125,4.8125 0,0 3.15625,6.6875 -1.28125,11.4375 C 21.25,29.25 11.8125,28.75 7.125,25.1875 2.4375,21.625 3.875,14.5 5.0625,13.03125 Z"
       id="path15" /><path
       style="fill:#3f1a0a;fill-opacity:1;stroke:#3f1a0a;stroke-width:1.3;stroke-linecap:round;stroke-linejoin:round;stroke-dasharray:none;stroke-opacity:1;paint-order:normal"
       d="m 15.171875,18.515625 1.84375,0.01563 -0.90625,0.90625 z"
       id="path17" /><circle
       style="fill:#3f1a0a;fill-opacity:1;stroke:none;stroke-width:1.32566;stroke-linecap:round;stroke-linejoin:round;stroke-dasharray:none;stroke-opacity:1;paint-order:normal"
       id="path16"
       cx="10.96875"
       cy="16.171875"
       r="2.421875" /><circle
       style="fill:#3f1a0a;fill-opacity:1;stroke:none;stroke-width:1.32566;stroke-linecap:round;stroke-linejoin:round;stroke-dasharray:none;stroke-opacity:1;paint-order:normal"
       id="path16-3"
       cx="21.125"
       cy="16.109375"
       r="2.421875" /><path
       style="fill:none;fill-opacity:1;stroke:#d16a1e;stroke-width:1.3;stroke-linecap:round;stroke-linejoin:round;stroke-dasharray:none;stroke-opacity:1;paint-order:normal"
       d="M 4.484375,15.484375 7.25,16.328125"
       id="path20" /><path
       style="fill:none;fill-opacity:1;stroke:#3f1a0a;stroke-width:1.3;stroke-linecap:round;stroke-linejoin:round;stroke-dasharray:none;stroke-opacity:1;paint-order:normal"
       d="m 13.03125,21.457031 c 0,0 1.59375,2.0625 2.96875,-0.07813"
       id="path19" /><path
       style="fill:none;fill-opacity:1;stroke:#d16a1e;stroke-width:1.3;stroke-linecap:round;stroke-linejoin:round;stroke-dasharray:none;stroke-opacity:1;paint-order:normal"
       d="m 4.046875,18.875 3.34375,0.34375"
       id="path21" /><path
       style="fill:none;fill-opacity:1;stroke:#d16a1e;stroke-width:1.3;stroke-linecap:round;stroke-linejoin:round;stroke-dasharray:none;stroke-opacity:1;paint-order:normal"
       d="m 13.3125,8.34375 0.03125,3.015625"
       id="path26" /><path
       style="fill:none;fill-opacity:1;stroke:#d16a1e;stroke-width:1.3;stroke-linecap:round;stroke-linejoin:round;stroke-dasharray:none;stroke-opacity:1;paint-order:normal"
       d="m 18.859375,8.34375 c 0,0.09375 -0.109375,3.140625 -0.109375,3.140625"
       id="path25" /><path
       style="display:inline;fill:none;fill-opacity:1;stroke:#3f1a0a;stroke-width:1.3;stroke-linecap:round;stroke-linejoin:round;stroke-dasharray:none;stroke-opacity:1;paint-order:normal"
       d="m 19.036603,21.453582 c 0,0 -1.59375,2.0625 -2.96875,-0.07813"
       id="path19-4" /><path
       style="fill:none;fill-opacity:1;stroke:#d16a1e;stroke-width:1.3;stroke-linecap:round;stroke-linejoin:round;stroke-dasharray:none;stroke-opacity:1;paint-order:normal"
       d="m 27.300951,15.567398 -2.386486,0.861786"
       id="path22" /><path
       style="fill:none;fill-opacity:1;stroke:#d16a1e;stroke-width:1.3;stroke-linecap:round;stroke-linejoin:round;stroke-dasharray:none;stroke-opacity:1;paint-order:normal"
       d="m 16.046875,8.265625 0.03125,3.765625"
       id="path24" /><path
       style="fill:none;fill-opacity:1;stroke:#d16a1e;stroke-width:1.3;stroke-linecap:round;stroke-linejoin:round;stroke-dasharray:none;stroke-opacity:1;paint-order:normal"
       d="M 27.709747,19.003495 24.583009,19.19132"
       id="path23" /><path
       style="display:inline;opacity:1;fill:none;fill-opacity:1;stroke:#3f1a0a;stroke-width:1.1;stroke-linecap:round;stroke-linejoin:round;stroke-dasharray:none;stroke-opacity:1;paint-order:normal"
       d="m 5.0633552,13.038615 c 0,0 -1.34375,-18.2187502 7.6250008,-4.9375004 0,0 4.249999,-0.78125 6.499999,0.15625 0,0 8.625,-13.9999998 7.78125,4.8124994 0,0 3.15625,6.6875 -1.28125,11.4375 -4.4375,4.75 -13.874999,4.25 -18.5625002,0.6875 -4.6874996,-3.5625 -3.2499996,-10.6875 -2.0624996,-12.156249 z"
       id="path15-2" /><path
       style="fill:none;fill-opacity:1;stroke:#ffffff;stroke-width:0.6;stroke-linecap:round;stroke-linejoin:round;stroke-dasharray:none;stroke-opacity:1;paint-order:normal"
       d="m 21.688291,15.070213 c 0,0 0.596621,0.07734 0.795495,0.707107"
       id="path27" /><path
       style="fill:none;fill-opacity:1;stroke:#ffffff;stroke-width:0.6;stroke-linecap:round;stroke-linejoin:round;stroke-dasharray:none;stroke-opacity:1;paint-order:normal"
       d="m 11.425,15.175 c 0,0 0.596621,0.07734 0.795495,0.707107"
       id="path27-7" /></g></svg>
