<?xml version="1.0" encoding="UTF-8"?>
<svg id="Layer_1" xmlns="http://www.w3.org/2000/svg" version="1.1" viewBox="0 0 512 512">
  <!-- Generator: Adobe Illustrator 29.7.1, SVG Export Plug-In . SVG Version: 2.1.1 Build 8)  -->
  <defs>
    <style>
      .st0 {
        fill: none;
        stroke: #f0a254;
        stroke-miterlimit: 10;
        stroke-width: 30px;
      }

      .st1 {
        fill: #f0a254;
      }
    </style>
  </defs>
  <g id="Layer_2">
    <g>
      <path class="st0" d="M226.88,159.27c8.45-1.73,19.1-3.17,31.42-3.13,11.87.04,22.17,1.44,30.4,3.13,4.09-12,11.13-28.34,23.48-45.39,14.83-20.48,31.28-33.67,42.78-41.48,12.8,11.81,30.96,30.8,47.22,57.65,8.91,14.71,82.49,136.22,21.13,231.13-51.2,79.2-155.22,80.65-165.01,80.61-67.03-.29-151.01-33.82-182.06-107.37-34.3-81.25,15.5-164.28,33.77-194.72,18.14-30.23,38.76-51.52,53.67-64.96,10.15,7.3,23.27,18.38,35.74,34.3,14.8,18.9,22.93,37.3,27.46,50.22Z"/>
      <path class="st1" d="M226.88,159.27l1.6,7.84c7.9-1.62,17.83-2.97,29.31-2.97.16,0,.32,0,.48,0h.09s-.09,0-.09,0c11.26.04,21.02,1.37,28.83,2.97l6.9,1.41,2.27-6.67c3.9-11.45,10.62-27.03,22.39-43.28,14.13-19.52,29.83-32.1,40.8-39.55l-4.49-6.62-5.43,5.88c12.42,11.47,30.04,29.89,45.8,55.92.79,1.3,2.05,3.38,3.68,6.21,5.7,9.88,15.88,28.82,24.59,52.72,8.72,23.9,15.92,52.72,15.91,82.26,0,13.74-1.55,27.63-5.18,41.31-3.64,13.68-9.35,27.16-17.74,40.15-12,18.56-27.04,32.6-43.16,43.32-24.16,16.07-50.81,24.56-72.48,28.94-21.66,4.39-38.3,4.69-42.3,4.69-.12,0-.22,0-.33,0h.01c-16.1-.07-33.32-2.14-50.5-6.33-25.78-6.28-51.45-17.32-73.3-33.29-10.93-7.98-20.91-17.19-29.53-27.65-8.62-10.46-15.88-22.17-21.39-35.22-7.96-18.86-11.13-37.77-11.14-56.19,0-14.17,1.89-28.03,4.97-41.22,4.61-19.79,11.89-38.05,19.31-53.48,3.71-7.72,7.45-14.72,10.91-20.87,3.46-6.15,6.62-11.43,9.21-15.73,17.62-29.36,37.66-50.06,52.17-63.13l-5.35-5.94-4.67,6.49c9.69,6.97,22.21,17.54,34.11,32.74,14.12,18.04,21.88,35.6,26.21,47.93l2.31,6.59,6.84-1.4-1.6-7.84,7.55-2.65c-4.73-13.5-13.23-32.73-28.71-52.5-13.04-16.66-26.76-28.23-37.37-35.87l-5.23-3.77-4.79,4.32c-15.32,13.8-36.51,35.68-55.18,66.78-3.45,5.75-8.1,13.5-13.11,22.8-7.52,13.96-15.88,31.45-22.39,51.29-6.5,19.84-11.17,42.05-11.17,65.44,0,20.26,3.53,41.42,12.4,62.42,8.18,19.38,19.86,36.12,33.79,50.27,20.91,21.22,46.83,36.62,73.96,46.78,27.14,10.16,55.52,15.1,81.65,15.21h.01c.11,0,.23,0,.38,0,6.37-.01,35.58-.58,70.1-11.29,17.26-5.36,35.86-13.27,53.54-25.02,17.67-11.74,34.42-27.35,47.74-47.96,9.35-14.46,15.74-29.54,19.77-44.73,4.03-15.19,5.72-30.48,5.72-45.41,0-18.35-2.54-36.19-6.4-52.78-5.8-24.89-14.61-47.01-22.57-63.95-3.98-8.47-7.75-15.65-10.83-21.22-3.08-5.56-5.49-9.55-6.69-11.52-16.76-27.68-35.47-47.23-48.63-59.39l-4.67-4.31-5.25,3.57c-12.03,8.17-29.25,21.96-44.77,43.41-12.92,17.85-20.29,34.94-24.57,47.5l7.57,2.58,1.6-7.84c-8.66-1.77-19.49-3.25-31.98-3.29h0c-.18,0-.36,0-.54,0-12.73,0-23.75,1.5-32.52,3.29l1.6,7.84,7.55-2.65-7.55,2.65Z"/>
    </g>
  </g>
</svg>